<svg xmlns="http://www.w3.org/2000/svg" xmlns:xlink="http://www.w3.org/1999/xlink" width="540.123" height="180"><linearGradient id="A" gradientUnits="userSpaceOnUse" x1="413.981" y1="89.987" x2="539.981" y2="89.987"><stop offset="0" stop-color="#adb6c7"/><stop offset="1" stop-color="#63677d"/></linearGradient><path fill="url(#A)" d="M413.98-.013h127v180h-127z"/><defs><filter id="B" filterUnits="userSpaceOnUse" x="228.345" y="-158.708" width="476.841" height="770.034"><feColorMatrix values="-1 0 0 0 1 0 -1 0 0 1 0 0 -1 0 1 0 0 0 1 0" color-interpolation-filters="sRGB"/></filter><path id="C" d="M406.197 171.756h.062c.05 0 .094-.013.13-.037.085-.058.126-.15.126-.28 0-.284-.22-.613-.656-.987-.074-.066-.112-.122-.112-.167 0-.025.013-.05.038-.068.018-.014.035-.02.05-.02.09 0 .24.11.45.328.166.172.302.354.406.547s.158.374.158.54-.06.305-.178.402a.52.52 0 0 1-.336.1c-.385 0-.762-.182-1.13-.543-.3-.295-.45-.55-.45-.77a.25.25 0 0 1 .055-.16.23.23 0 0 1 .188-.09c.12 0 .27.057.445.168.364.23.615.576.755 1.04zm-.267-.075c-.055-.16-.116-.285-.185-.376a1.52 1.52 0 0 0-.417-.379c-.055-.035-.104-.052-.146-.052s-.068.02-.068.065c0 .06.044.143.133.252.157.196.385.36.684.49z"/><path id="D" d="M403.538 166.777c0-.103.053-.153.157-.153.096 0 .202.05.317.15s.168.188.168.276c0 .043-.016.08-.048.106s-.065.04-.11.04c-.11 0-.226-.06-.35-.182-.092-.09-.137-.17-.137-.24zm1.268.65c0-.04.016-.07.045-.096.025-.02.05-.027.075-.027.04 0 .11.033.205.1.366.236.67.405.905.506a7.88 7.88 0 0 0 .752.283c.114.036.172.094.172.17a.13.13 0 0 1-.055.109c-.03.025-.062.038-.096.038-.068 0-.297-.073-.684-.22-.306-.114-.643-.3-1.012-.555-.12-.082-.202-.143-.243-.184s-.065-.084-.065-.127z"/><path id="E" d="M405.06 156.98c-.164-.193-.246-.367-.246-.522 0-.096.04-.175.12-.235.07-.058.152-.086.246-.086.178 0 .393.06.646.174a2.7 2.7 0 0 1 .782.564c.2.203.3.396.3.58 0 .068-.013.13-.038.187a.42.42 0 0 1-.112.148l.062.034.154.08c.018.015.027.038.027.07 0 .04-.024.08-.072.116a.16.16 0 0 1-.103.037c-.063 0-.386-.13-.968-.393-.81-.367-1.617-.792-2.42-1.275l-.577-.358c-.068-.048-.103-.093-.103-.134 0-.05.025-.094.075-.133.032-.025.07-.037.112-.037.05 0 .11.02.182.064l.352.215c.64.413 1.165.714 1.58.902zm1.48.576c.022-.035.034-.072.034-.11 0-.197-.172-.407-.516-.63-.155-.102-.31-.183-.462-.242-.137-.053-.238-.078-.304-.078-.046 0-.08.01-.102.03s-.032.053-.032.096c0 .104.07.23.216.38s.345.293.61.438l.36.178.092.044c.045-.034.08-.07.103-.104z"/><path id="F" d="M342.566 171.478h.024l.776-3.975h1.21l-1.368 5.857h-1.1l-1.078-3.858h-.024l-1.074 3.858h-1.1l-1.368-5.857h1.21l.78 3.97h.024l1.054-3.97h.95l1.062 3.975z"/><path id="G" d="M365.7 171.02v2.34h-1.175v-5.857h2.027c.668 0 1.2.152 1.567.457s.564.73.564 1.273a1.28 1.28 0 0 1-.239.778c-.16.22-.392.395-.697.53.346.102.595.272.746.51s.228.534.228.885v.43c0 .164.02.334.066.513s.12.31.227.396v.084h-1.21c-.107-.086-.176-.228-.207-.426a3.82 3.82 0 0 1-.046-.575v-.415c0-.292-.08-.52-.24-.682s-.386-.243-.678-.243h-.934zm0-.905h.833c.33 0 .575-.07.735-.21s.242-.346.242-.62c0-.268-.082-.48-.244-.64s-.4-.237-.714-.237h-.853v1.706z"/><path id="H" d="M373.033 172.097h-1.9l-.394 1.263h-1.228l1.976-5.857h1.202l1.968 5.857h-1.228l-.397-1.263zm-1.61-.92h1.323l-.647-2.063h-.024l-.65 2.063z"/><path id="I" d="M142.766 35.436c.117-.788.368-1.402.75-1.844s.866-.66 1.446-.66c.316 0 .587.07.813.213a1.46 1.46 0 0 1 .532.604l.422-2.83h.527l-1.028 6.855h-.43l.03-.7c-.196.252-.43.445-.7.58s-.575.202-.912.202c-.548 0-.956-.214-1.224-.644s-.348-.994-.24-1.694l.013-.092zm.514.092c-.09.595-.047 1.057.132 1.386s.5.495.967.495a1.64 1.64 0 0 0 .87-.233 1.96 1.96 0 0 0 .637-.633l.338-2.237a1.36 1.36 0 0 0-.411-.664c-.195-.17-.468-.255-.82-.255-.445 0-.818.193-1.118.578s-.495.875-.583 1.47l-.013.092z"/><path id="J" d="M164.202 36.556c.03-.23-.035-.428-.193-.59s-.47-.294-.936-.4c-.545-.117-.94-.277-1.187-.48s-.343-.488-.3-.854c.053-.378.248-.69.584-.934s.76-.367 1.27-.367.91.136 1.198.406.4.6.332.987l-.01.026h-.492a.76.76 0 0 0-.235-.688c-.195-.188-.48-.283-.855-.283-.366 0-.662.085-.888.255s-.353.363-.382.58c-.03.226.028.407.17.545s.457.26.94.37c.54.123.936.294 1.19.514s.357.516.308.888a1.39 1.39 0 0 1-.617.976c-.35.24-.792.36-1.325.36-.554 0-.98-.14-1.283-.417s-.417-.605-.347-.98l.01-.026h.483c-.026.343.08.592.32.747s.532.233.88.233c.363 0 .67-.086.923-.257s.396-.375.43-.61z"/><path id="K" d="M60.44 170.134h-3.616l3.054-12.852h3.64l-3.08 12.852zm1.76-14.415a2.24 2.24 0 0 1-1.368-.452c-.408-.3-.61-.76-.61-1.38a2.28 2.28 0 0 1 .208-.965c.138-.3.32-.562.55-.782s.492-.395.794-.525.623-.195.965-.195c.504 0 .96.15 1.368.452s.61.762.61 1.38a2.29 2.29 0 0 1-.208.965 2.56 2.56 0 0 1-.55.782 2.65 2.65 0 0 1-.794.525c-.3.13-.623.195-.965.195z"/><path id="L" d="M130.867 166.924c0 .487-.08.932-.24 1.335a3.15 3.15 0 0 1-.665 1.045c-.283.293-.623.522-1.02.685a3.37 3.37 0 0 1-1.295.245 3.9 3.9 0 0 1-.68-.06l-.45 1.8h-1.48l1.66-6.92c.267-.08.57-.152.915-.215a6.18 6.18 0 0 1 1.115-.095c.374 0 .695.057.965.17a1.8 1.8 0 0 1 .665.465 1.9 1.9 0 0 1 .385.69 2.8 2.8 0 0 1 .125.845zm-3.63 2.05c.113.027.253.04.42.04a1.7 1.7 0 0 0 .71-.145 1.56 1.56 0 0 0 .545-.405c.15-.173.267-.382.35-.625a2.48 2.48 0 0 0 .125-.805c0-.287-.063-.53-.2-.73s-.347-.3-.66-.3c-.213 0-.414.02-.6.06l-.7 2.9z"/><path id="M" d="M136.447 167.864a3.32 3.32 0 0 0-.08 1.145c.04.383.117.725.23 1.025l-1.33.2-.1-.23-.1-.25c-.187.154-.394.28-.62.38a1.87 1.87 0 0 1-.76.15c-.333 0-.618-.06-.855-.175a1.61 1.61 0 0 1-.58-.47c-.15-.197-.258-.427-.325-.7s-.1-.545-.1-.845a3.45 3.45 0 0 1 .245-1.3 3.3 3.3 0 0 1 .68-1.065c.3-.304.632-.542 1.025-.715s.82-.26 1.28-.26l.315.01.515.045c.193.023.396.062.6.115a3.16 3.16 0 0 1 .61.22l-.65 2.72zm-1.04-1.84l-.235-.03a2.87 2.87 0 0 0-.255-.01 1.25 1.25 0 0 0-.635.17c-.197.113-.368.262-.515.445a2.12 2.12 0 0 0-.345.635c-.083.24-.125.5-.125.75 0 .32.053.573.16.76s.303.28.6.28c.153 0 .292-.03.415-.1a1.52 1.52 0 0 0 .395-.3l.065-.525.095-.505.4-1.58z"/><path id="N" d="M143.977 168.074c0-.426.075-.84.225-1.24s.36-.755.635-1.065a3.16 3.16 0 0 1 .995-.75c.4-.2.822-.285 1.295-.285.233 0 .45.033.65.1a1.57 1.57 0 0 1 .525.29 1.3 1.3 0 0 1 .35.465c.083.184.125.392.125.625 0 .374-.083.7-.25.95s-.398.472-.695.635-.648.282-1.055.355-.85.1-1.33.1c.046.28.148.48.305.595s.405.175.745.175a3.95 3.95 0 0 0 .65-.055 3.25 3.25 0 0 0 .62-.165l.1 1.17c-.187.073-.425.14-.715.2a4.66 4.66 0 0 1-.945.09c-.414 0-.762-.06-1.045-.175s-.513-.275-.7-.475-.305-.434-.385-.7a2.94 2.94 0 0 1-.12-.85zm2.9-2.16a1.26 1.26 0 0 0-.895.365c-.257.244-.425.565-.505.965.414-.013.747-.048 1-.105s.45-.125.6-.205.233-.167.28-.26a.62.62 0 0 0 .07-.28c0-.32-.18-.48-.54-.48z"/><path id="O" d="M173.106 170.234c-.473 0-.845-.062-1.115-.185s-.463-.292-.58-.505-.173-.458-.17-.735a4.09 4.09 0 0 1 .115-.885l1.27-5.3 1.55-.24-1.4 5.76a1.76 1.76 0 0 0-.045.33c-.003.1.015.188.055.265a.43.43 0 0 0 .205.185c.097.047.23.077.405.1l-.3 1.23z"/></defs><mask maskUnits="userSpaceOnUse" x="228.345" y="-158.708" width="476.841" height="770.034" id="P"><g filter="url(#B)"><path d="M423.935.258h116.25v179.674h-116.25z"/></g></mask><g mask="url(#P)" fill="none" stroke-width=".182"><path stroke="#afc85a" d="M376.556-158.622S600.296-87.05 537.08 99.433c-63.21 186.487 41.822 282.836 79.96 316.72s130.326 111.85 65.682 195.117"/><path stroke="#acc558" d="M369.5-154.328S595.29-86.16 532.453 99.694c-62.833 185.86 43.456 280.128 82.043 313.264s131.848 109.327 67.092 192.78"/><path stroke="#a9c256" d="M362.44-150.034S590.286-85.27 527.827 99.955c-62.454 185.23 45.09 277.418 84.128 309.807s133.368 106.805 68.502 190.44"/><path stroke="#a6c054" d="M355.383-145.74S585.28-84.382 523.2 100.216c-62.075 184.604 46.723 274.71 86.212 306.35s134.9 104.28 69.912 188.102"/><path stroke="#a3bd53" d="M348.325-141.446s231.95 57.954 170.25 241.923c-61.696 183.976 48.356 272 88.296 302.895s136.41 101.76 71.322 185.764"/><path stroke="#a0ba51" d="M341.268-137.152s234.003 54.55 172.682 237.9c-61.318 183.348 50 269.292 90.38 299.438s137.933 99.236 72.732 183.425"/><path stroke="#9db84f" d="M334.2-132.858S570.266-81.714 509.323 101c-60.94 182.72 51.623 266.583 92.465 295.982s139.453 96.713 74.143 181.087"/><path stroke="#9ab54e" d="M327.152-128.564S565.26-80.825 504.697 101.26c-60.562 182.092 53.257 263.874 94.55 292.525s140.975 94.2 75.553 178.748"/><path stroke="#97b34c" d="M320.095-124.27S560.256-79.935 500.07 101.52c-60.183 181.464 54.89 261.165 96.633 289.07S739.2 482.258 673.667 567"/><path stroke="#94b04b" d="M313.037-119.977s242.214 40.93 182.41 221.758c-59.805 180.837 56.523 258.456 98.716 285.613s144.018 89.146 78.373 174.07"/><path stroke="#91ae49" d="M305.98-115.683s244.266 37.526 184.84 217.726C431.394 282.25 548.977 357.79 591.62 384.2s145.54 86.622 79.783 171.732"/><path stroke="#8eab48" d="M298.922-111.39s246.32 34.122 187.272 213.693c-59.048 179.58 59.8 253.038 102.885 278.7 43.095 25.668 147.06 84.1 81.193 169.395"/><path stroke="#8ba946" d="M291.864-107.095s248.37 30.718 189.704 209.66c-58.67 178.953 61.424 250.33 104.97 275.244s148.582 81.577 82.604 167.056"/><path stroke="#88a645" d="M284.806-102.8S535.23-75.49 476.942 102.827C418.65 281.15 540 350.447 583.995 374.615S734.1 453.668 668.01 539.33"/><path stroke="#86a444" d="M277.75-98.507S530.226-74.6 472.315 103.087C414.404 280.784 537.007 348 581.453 371.42s151.625 76.53 85.425 162.378"/><path stroke="#83a243" d="M270.69-94.213s254.53 20.504 197 197.562c-57.533 177.068 66.324 242.203 111.222 264.875 44.897 22.68 153.146 74.01 86.834 160.04"/><path stroke="#809f42" d="M263.633-89.92s256.583 17.1 199.43 193.53C405.91 280.05 531.022 343.103 576.37 365.03s154.667 71.485 88.244 157.7"/><path stroke="#7d9d40" d="M256.575-85.625S515.21-71.93 458.438 103.87c-56.776 175.813 69.59 236.785 115.4 257.963 45.8 21.185 156.188 68.962 89.654 155.362"/><path stroke="#7a9b3f" d="M249.518-81.332s260.688 10.3 204.295 185.463c-56.397 175.185 71.225 234.076 117.474 254.507 46.25 20.438 157.7 66.44 91.064 153.024"/><path stroke="#78993e" d="M242.46-77.038s262.74 6.886 206.726 181.43c-56.02 174.557 72.858 231.367 119.56 251.05 46.7 19.69 159.23 63.917 92.475 150.686"/><path stroke="#75963d" d="M235.402-72.744s264.793 3.48 209.158 177.397c-55.64 173.93 74.49 228.658 121.643 247.594 47.15 18.943 160.752 61.395 93.885 148.348"/><path stroke="#72943c" d="M228.345-68.45s266.846.077 211.6 173.365c-55.262 173.3 76.125 225.95 123.727 244.138 47.602 18.196 162.273 58.872 95.295 146.01"/></g><path fill="#63677d" d="M413.98-.096h10.62v180.083h-10.62z"/><path d="M423.005 127.43h-7.1v-2.33c0-.882.164-1.57.5-2.063s.814-.74 1.463-.74a1.72 1.72 0 0 1 .9.234c.26.156.46.4.594.732.092-.423.28-.736.566-.94a1.67 1.67 0 0 1 .991-.305c.693 0 1.218.233 1.572.698s.532 1.133.532 2.002v2.7zm-4.146-1.65v-.65c0-.397-.07-.693-.208-.9s-.344-.293-.617-.293c-.303 0-.523.094-.662.283s-.207.48-.207.87v.68h1.694zm1.094 0h1.782v-1.06c0-.352-.07-.615-.207-.8s-.352-.264-.638-.264c-.303 0-.532.077-.688.232s-.24.4-.25.764v1.118zm1.67-10.447v2.114l1.382.4v1.738l-7.1-2.32v-.884h.005l-.005-.005v-.884l7.1-2.324v1.738l-1.382.415zm-1.27 1.733v-1.353l-2.207.664v.03l2.207.66zm.254-11.8l.03-.01c.8-.013 1.425.216 1.843.686s.628 1.137.628 2c0 .88-.27 1.584-.806 2.117s-1.24.798-2.1.798h-1.484c-.865 0-1.568-.256-2.107-.77s-.808-1.2-.808-2.034c0-.902.2-1.6.63-2.092s1.03-.733 1.83-.72l.03.015v1.606c-.437 0-.75.093-.937.278s-.283.5-.283.913c0 .37.15.656.446.854s.695.298 1.2.298h1.494c.498 0 .896-.1 1.196-.327s.45-.53.45-.937c0-.377-.095-.65-.283-.818s-.505-.25-.947-.25v-1.606zm-.454-5.032v.46h2.852v1.65h-7.1v-1.65h2.783v-.342l-2.783-1.606V96.67l3.232 2.236 3.877-2.427v2.12l-2.852 1.636zm-4.257-12.094h4.6c.814 0 1.45.27 1.912.8s.7 1.245.7 2.114c0 .875-.23 1.585-.7 2.13s-1.098.815-1.912.815h-4.6v-1.655h4.6c.44 0 .77-.114.996-.342s.337-.543.337-.947-.1-.712-.335-.935-.555-.334-.998-.334h-4.6V88.14zm4.672-4.743h2.437v1.65h-7.1v-2.715c0-.843.215-1.512.645-2.007s.994-.742 1.694-.742 1.264.248 1.692.742.642 1.164.642 2.007v1.064zm-1.27 0v-1.064c0-.358-.1-.63-.296-.82s-.45-.283-.76-.283-.575.094-.776.28-.303.46-.303.823v1.064h2.134zm1.822-14.884c-.254 0-.448.083-.584.25s-.28.467-.432.903c-.287.882-.592 1.537-.916 1.965s-.8.642-1.398.642c-.596 0-1.078-.25-1.445-.747s-.552-1.13-.552-1.9c0-.8.2-1.463.57-1.958s.914-.734 1.604-.718l.03.01v1.602c-.336 0-.578.1-.73.273s-.227.458-.227.825c0 .3.073.536.22.708s.327.26.542.26a.58.58 0 0 0 .5-.266c.126-.177.283-.5.472-.994.244-.824.542-1.447.894-1.87s.834-.635 1.445-.635c.625 0 1.114.244 1.467.732s.53 1.136.53 1.943-.2 1.485-.57 2.043-.975.83-1.8.813l-.03-.01V70.78c.414 0 .707-.102.88-.305s.262-.515.262-.935c0-.345-.068-.602-.205-.77a.66.66 0 0 0-.537-.254zm.615-6.2v-3.052h1.27v4.702h-7.1v-1.65h5.84zm1.27-7.684v1.646h-7.1V54.63h7.1zm-2.437-4.885h2.437v1.65h-7.1V48.68c0-.843.215-1.512.645-2.007s.994-.742 1.694-.742 1.264.248 1.692.742.642 1.164.642 2.007v1.064zm-1.27 0V48.68c0-.358-.1-.63-.296-.82s-.45-.283-.76-.283-.575.094-.776.28-.303.46-.303.823v1.064h2.134z" fill="#fff"/><linearGradient id="Q" gradientUnits="userSpaceOnUse" x1="0" y1="90" x2="413.999" y2="90"><stop offset="0" stop-color="#fff"/><stop offset="1" stop-color="#cbcaca"/></linearGradient><path fill="url(#Q)" d="M0 0h414v180H0z"/><defs><filter id="R" filterUnits="userSpaceOnUse" x="-76.45" y="-37.286" width="679.644" height="333.233"><feColorMatrix values="-1 0 0 0 1 0 -1 0 0 1 0 0 -1 0 1 0 0 0 1 0" color-interpolation-filters="sRGB"/></filter></defs><mask maskUnits="userSpaceOnUse" x="-76.45" y="-37.286" width="679.644" height="333.233" id="S"><g filter="url(#R)"><path d="M.1-.016h413.945V179.93H.1z"/></g></mask><g mask="url(#S)"><g fill="none" stroke="#b1b1b0" stroke-width=".182"><path d="M442.554 68.792s-86.69 119.194-185.337 44.816S80.49 82.833 52.794 98.88-39.5 154.497-76.374 99.6"/><path d="M441.386 63.742S356.318 184.83 257.972 110.8 82.537 81.532 55.198 97.997s-91.09 57.02-128.052 2.01"/><path d="M440.217 58.692s-83.443 122.98-181.5 49.302S84.584 80.23 57.602 97.11s-89.887 58.42-126.937 3.3"/><path d="M439.05 53.642s-81.82 124.874-179.566 51.544-172.85-26.256-199.477-8.96-88.683 59.824-125.82 4.6"/><path d="M437.88 48.592S357.685 175.36 260.237 102.38 88.68 77.63 62.4 95.34s-87.48 61.228-124.707 5.91"/><path d="M436.712 43.542s-78.57 128.66-175.72 56.03S90.727 76.33 64.814 94.457s-86.276 62.63-123.59 7.21"/><path d="M435.544 38.493S358.596 169.046 261.75 96.765 92.774 75.03 67.218 93.57s-85.073 64.034-122.476 8.512"/><path d="M434.375 33.442s-75.323 132.447-171.87 60.515-167.682-20.23-192.882-1.27-83.87 65.437-121.36 9.813"/><path d="M433.207 28.392s-73.7 134.34-169.948 62.76-166.4-18.724-191.233.65-82.667 66.84-120.245 11.113"/><path d="M432.038 23.342s-72.075 136.233-168.023 65S98.917 71.126 74.43 90.916-7.033 159.16-44.7 103.33"/><path d="M430.87 18.292s-70.45 138.127-166.1 67.244c-95.654-70.883-163.806-15.7-187.937 4.495s-80.26 69.646-118.014 13.714"/><path d="M429.702 13.243s-68.828 140.02-164.177 69.486C170.17 12.194 103.012 68.525 79.238 89.146S.182 160.195-37.66 104.16"/><path d="M428.533 8.193S361.33 150.106 266.28 79.922C171.226 9.736 105.06 67.225 81.642 88.26S3.79 160.712-34.142 104.576"/><path d="M427.365 3.142s-65.58 143.807-160.33 73.973-159.93-11.19-183 10.26-76.65 73.854-114.668 17.616"/><path d="M426.197-1.908s-63.956 145.7-158.406 76.216C173.336 4.82 109.154 64.624 86.45 86.49S11.004 161.75-27.103 105.407"/><path d="M425.028-6.958S362.696 140.636 268.547 71.5C174.39 2.362 111.202 63.323 88.854 85.606s-74.242 76.66-112.437 20.217"/><path d="M423.86-12.008s-60.708 149.487-154.558 80.7C175.446-.096 113.25 62.022 91.258 84.72s-73.04 78.064-111.32 21.518"/><path d="M422.69-17.058s-59.083 151.38-152.634 82.944C176.5-2.554 115.297 60.72 93.662 83.835s-71.836 79.466-110.206 22.818"/><path d="M421.523-22.107s-57.46 153.273-150.7 85.187c-93.258-68.09-153.47-3.66-174.748 19.872s-70.633 80.87-109.09 24.118"/><path d="M420.355-27.157S364.52 128.01 271.568 60.272C178.6-7.47 119.392 58.12 98.47 82.065s-69.43 82.272-107.976 25.42"/><path d="M419.187-32.208s-54.212 157.06-146.862 89.672c-92.66-67.393-150.885-.646-171.45 23.715S32.648 164.855-5.986 107.9"/><path d="M418.02-37.257S365.43 121.695 273.08 54.658c-92.36-67.044-149.592.86-169.8 25.638s-67.022 85.078-105.745 28.02"/></g><g opacity=".2" fill="none" stroke="#b1b1b0"><path d="M602.98 142.088s-212.828 100.238-342.5-14.57C129.794 12.575-12.232 144.756-1.43 179.42m604.396-37.22S392.04 245.97 260.7 133.618C128.346 21.15-11.36 155.576-.017 189.992m602.967-47.68s-209.02 107.302-342.03-2.593C126.897 29.727-10.5 166.396 1.397 200.565m601.538-58.14S395.815 253.26 261.14 145.82C125.45 38.303-9.62 177.216 2.8 211.137m600.12-68.6s-205.215 114.367-341.56 9.385C124 46.88-8.75 188.037 4.224 221.7m598.68-79.06S399.59 260.55 261.58 158.025C122.553 55.456-7.878 198.857 5.637 232.282m597.25-89.522S401.48 264.192 261.8 164.125C121.104 64.032-7.007 209.676 7.05 242.854m595.822-99.98S403.366 267.836 262.02 170.226c-142.362-97.618-268.155 50.27-253.555 83.2m594.39-110.44S405.254 271.48 262.238 176.327c-144.03-95.142-267.504 55-252.362 87.67m592.964-120.9s-195.7 132.028-340.382 39.33C116.76 89.76-4.395 242.137 11.3 274.57M602.825 143.2S409.03 278.77 262.678 188.53C115.3 98.337-3.524 252.958 12.703 285.143"/><path d="M602.8 143.32s-191.893 139.093-339.912 51.3C113.863 106.913-2.653 263.777 14.116 295.715"/></g><path fill="#ececec" d="M32.752 89.24a83.18 83.18 0 0 1-1.307-.01c-39.17-.6-59.618-28.35-59.82-28.63l.843-.607c.2.276 20.368 27.62 59.016 28.2 20.86.296 43.31-7.114 66.77-22.075 29.05-18.526 59.788-48.757 91.358-89.853l.823.633c-31.65 41.2-62.48 71.516-91.64 90.106-23.15 14.76-45.362 22.237-66.045 22.237z"/><path fill="#e9e9e8" d="M32.462 83.157c-31.715 0-51.283-17.366-58.4-25.073l-.277-.298.753-.715.287.308c7.312 7.918 27.95 26.17 61.585 24.65C56.223 81.13 77.3 73.423 99.054 59.12c26.653-17.523 54.55-45.13 82.915-82.055l.823.633C130.646 45.58 81.413 81.03 36.458 83.066c-1.352.06-2.685.09-3.996.09z"/><path fill="#e5e5e5" d="M31.74 77.255c-32.898 0-52.173-18.48-55.836-22.337l.753-.715c3.778 3.98 24.414 23.737 59.69 21.893 43.22-2.257 89.64-35.306 137.978-98.23l.823.633C126.617 41.674 79.936 74.86 36.4 77.133a89.5 89.5 0 0 1-4.661.123z"/><path fill="#e2e2e2" d="M30.407 71.602c-33.43 0-51.598-18.72-52.388-19.553l.753-.715c.814.857 20.342 20.974 56.34 19.105 41.62-2.173 87.115-33.908 131.567-91.772l.823.633c-24.67 32.113-49.524 56.222-73.875 71.657-19.928 12.63-39.597 19.535-58.46 20.52-1.618.084-3.207.125-4.76.125z"/><path fill="#dedede" d="M28.445 66.286c-25.172 0-42.064-10.524-48.3-17.104l.753-.715c6.513 6.86 24.85 18.085 52.303 16.655 28.536-1.5 73.532-17.56 125.842-85.653l.823.633C107.306 48.51 62 64.66 33.246 66.16a92.33 92.33 0 0 1-4.8.126z"/><path fill="#dbdbdb" d="M25.92 61.414c-21.542 0-36.85-7.918-43.668-15.1l.753-.715C-9.845 53.13 6.9 61.482 30.556 60.253c28.226-1.474 72.1-16.546 120.833-79.982l.823.633C103.24 44.653 59.054 59.805 30.6 61.29c-1.595.083-3.16.123-4.69.123z"/><path fill="#d7d7d7" d="M23.083 57.08c-16.45 0-30.397-4.87-38.716-13.634l.753-.715c8.856 9.33 24.306 14.142 42.392 13.193 38.883-2.03 81.248-29.313 116.23-74.853l.823.633c-35.17 45.78-77.814 73.212-117 75.258a85.89 85.89 0 0 1-4.483.118z"/><path fill="#d4d4d3" d="M20.858 53.294c-14.616 0-26.442-4.36-34.375-12.715l.753-.715C-4.332 48.746 8.67 52.992 24.824 52.15c28.852-1.507 73.235-20.76 111.274-70.278l.823.633C98.667 32.303 53.96 51.67 24.877 53.188c-1.36.07-2.703.106-4.02.106z"/><path fill="#d0d0d0" d="M19.886 49.96c-13.048 0-23.56-4.113-31.286-12.25l.753-.715c8.167 8.603 19.57 12.592 33.88 11.838 32.836-1.714 77.087-29.54 105.22-66.16l.823.633c-28.3 36.84-72.876 64.836-106 66.565-1.152.06-2.286.1-3.4.1z"/><path fill="#ccc" d="M20.125 46.952c-11.892 0-21.774-4.066-29.41-12.11l.753-.715C-.517 42.57 10.055 46.508 22.9 45.84c35.533-1.855 79.43-38.31 97.908-62.365l.823.633c-18.596 24.207-62.817 60.897-98.677 62.77-.955.05-1.9.075-2.83.075z"/><path fill="#c9c9c8" d="M21.182 44.158c-11.142 0-20.668-4.09-28.35-12.184l.753-.715c8.02 8.45 18.12 12.417 29.992 11.797 35.318-1.844 78.025-43.73 89.586-58.78l.823.633C102.35.06 59.314 42.23 23.63 44.094a47.07 47.07 0 0 1-2.449.064z"/><path fill="#c5c5c5" d="M22.8 41.506c-10.68 0-20.044-4.166-27.86-12.4l.753-.715c8.042 8.473 17.756 12.522 28.9 12.037 37.765-1.647 80.505-54.822 80.933-55.36l.813.646c-.43.54-43.46 54.08-81.7 55.75a41.8 41.8 0 0 1-1.828.04z"/></g><path d="M403.228 173.452a1.22 1.22 0 0 0 .115.174c.082.1.123.172.123.22 0 .037-.014.07-.044.1s-.067.048-.106.048c-.084 0-.21-.1-.375-.33a1.82 1.82 0 0 1-.383-1.121c0-.317.104-.57.31-.756.188-.17.412-.253.677-.253.438 0 .95.162 1.542.485.69.378 1.262.87 1.715 1.477.338.45.506.848.506 1.196 0 .137-.04.24-.123.312-.068.057-.14.085-.22.085-.115 0-.378-.075-.785-.226a18.44 18.44 0 0 1-1.911-.848l-1.042-.56zm-.158-.32c.035-.068.072-.103.113-.103.03 0 .123.043.28.13.763.426 1.495.786 2.194 1.08.63.267 1.016.4 1.158.4.092 0 .137-.043.137-.13 0-.146-.078-.342-.235-.588-.194-.31-.52-.646-.974-1.016-.4-.335-.848-.6-1.3-.793-.355-.15-.67-.226-.946-.226-.196 0-.343.048-.44.144s-.146.24-.146.43.056.417.167.67z"/><use xlink:href="#C"/><path d="M404.584 168.533c0-.14.024-.247.075-.317s.127-.106.23-.106c.135 0 .265.05.39.15.118.096.214.24.287.432.038.104.058.192.058.263 0 .096-.042.144-.126.144-.058 0-.1-.027-.13-.082a3.07 3.07 0 0 1-.058-.232.51.51 0 0 0-.12-.232c-.052-.062-.11-.092-.17-.092-.05 0-.084.014-.106.04s-.034.068-.034.123c0 .132.054.277.16.438.12.184.265.276.432.276.118 0 .266-.06.443-.18.194-.135.358-.202.492-.202.2 0 .358.09.473.267.07.11.105.233.105.373 0 .22-.078.385-.236.498a.66.66 0 0 1-.396.12c-.178 0-.326-.046-.447-.137-.08-.06-.12-.12-.12-.185 0-.057.022-.086.068-.086.018 0 .045.01.082.03.098.053.213.078.345.078a.38.38 0 0 0 .284-.119c.068-.07.102-.15.102-.242s-.03-.16-.088-.21c-.05-.04-.114-.062-.19-.062-.096 0-.22.055-.373.164-.21.15-.4.226-.57.226-.23 0-.43-.124-.605-.373-.168-.24-.253-.496-.253-.766z"/><use xlink:href="#D"/><path d="M406.56 166.376c-.178-.243-.34-.425-.485-.543-.212-.176-.384-.3-.517-.373-.06-.036-.088-.073-.088-.112 0-.055.025-.082.078-.082.062 0 .164.043.308.13.438.27.82.672 1.146 1.2l1.066.554c.492.314.738.6.738.89 0 .146-.058.25-.172.314-.065.036-.14.055-.225.055-.358 0-.7-.23-1.03-.7-.055-.073-.226-.368-.513-.886l-.5-.232c.25.24.376.438.376.596 0 .098-.05.174-.15.23-.065.034-.134.05-.205.05-.164 0-.375-.066-.632-.2-.372-.19-.666-.422-.883-.7-.18-.226-.27-.425-.27-.6 0-.088.033-.165.1-.23.043-.043.106-.064.19-.064.104 0 .234.035.39.105.05-.053.088-.078.113-.078.016 0 .04.01.068.033a6.21 6.21 0 0 0 .475.298c.203.12.4.227.62.317zm-.79.024c-.035.032-.06.048-.072.048-.02 0-.047-.018-.078-.05-.11-.114-.224-.207-.342-.277-.094-.057-.167-.086-.22-.086-.062 0-.093.03-.093.086 0 .098.093.238.28.42.22.217.47.386.742.506.137.06.24.1.314.1.04 0 .07-.01.092-.027s.03-.045.03-.08c0-.08-.082-.19-.246-.335a2.63 2.63 0 0 0-.309-.232l-.102-.062zm1.493.646a2.22 2.22 0 0 0 .581.797c.12.107.248.184.383.23.04.014.075.02.103.02s.056-.008.08-.02c.04-.024.06-.06.06-.105 0-.142-.15-.307-.454-.496l-.752-.424z"/><path d="M405.68 164.63l-.082-.086c-.465-.477-.697-.795-.697-.957 0-.09.05-.133.147-.133.068 0 .15.04.243.12.508.436.955.652 1.343.652a.68.68 0 0 0 .358-.102c.053-.032.094-.05.123-.05s.055.014.08.04a.14.14 0 0 1 .048.106c0 .094-.06.172-.178.235a.82.82 0 0 1-.406.093c-.31 0-.648-.116-1.022-.35.198.3.55.598 1.053.865.12.068.18.14.18.22 0 .038-.014.07-.04.096-.03.03-.072.047-.123.047-.123 0-.445-.14-.967-.42l-.615-.355c-.125-.087-.187-.16-.187-.223 0-.03.014-.058.04-.085s.068-.048.11-.048c.05 0 .12.033.215.1.14.096.266.173.38.232z"/><use xlink:href="#C" y="-8.56"/><path d="M404.857 160.164l-1.244-.646-.646-.4c-.1-.078-.147-.15-.147-.22 0-.037.015-.07.044-.1s.063-.04.096-.04c.053 0 .14.04.264.116l1.623.91c.64.32 1.12.48 1.44.48.13 0 .232-.025.308-.075.017-.01.052-.05.11-.123.01-.014.034-.02.068-.02a.18.18 0 0 1 .125.053c.037.035.056.075.056.118 0 .053-.03.1-.096.175-.09.09-.195.146-.314.164l-.28.023c.43.24.646.467.646.684 0 .125-.07.226-.212.3-.094.05-.2.075-.318.075-.355 0-.713-.13-1.072-.4s-.533-.534-.533-.83c0-.082.027-.167.085-.254zm.28.117c-.04.06-.062.114-.062.16 0 .19.117.373.353.543.305.227.6.34.885.34.034 0 .066-.007.096-.02.057-.027.086-.068.086-.123 0-.08-.078-.177-.232-.29a4.2 4.2 0 0 0-.729-.424l-.287-.133-.064-.03-.045-.02z"/><use xlink:href="#E"/><path d="M405.896 154.787l.533.486c.228.238.342.438.342.598 0 .077-.028.14-.085.185a.28.28 0 0 1-.172.052c-.246 0-.572-.146-.98-.437-.414-.297-.622-.5-.622-.643 0-.037.017-.068.048-.096.025-.025.055-.038.1-.038.05 0 .094.013.132.04s.12.1.25.224a3.4 3.4 0 0 0 .438.359c.178.125.308.188.4.188.048 0 .072-.022.072-.068 0-.1-.125-.262-.373-.512l-.396-.37-.324-.24-.305-.235c-.08-.068-.12-.132-.12-.2 0-.036.016-.07.047-.1a.15.15 0 0 1 .104-.041c.065 0 .176.045.33.137l.53.3a5.13 5.13 0 0 0 .684.33 1.88 1.88 0 0 0-.312-.399c-.205-.205-.358-.33-.458-.377-.092-.043-.137-.087-.137-.133 0-.063.03-.096.096-.096.12 0 .3.103.54.308a3.3 3.3 0 0 1 .731.909l1.145.543c.56.32.838.648.838.988 0 .14-.054.25-.16.335-.082.066-.186.1-.312.1-.355 0-.72-.25-1.1-.748-.1-.146-.246-.362-.4-.65l-.16-.273c-.105-.04-.244-.104-.417-.188l-.506-.246zm1.343.63c.123.242.3.5.527.742.234.255.453.383.656.383.043 0 .08-.013.1-.037a.17.17 0 0 0 .06-.134c0-.17-.178-.36-.536-.567a12.03 12.03 0 0 0-.59-.28l-.227-.106zm-4.275-6.23c.07.456.16.88.27 1.268a.6.6 0 0 1 .045.191.16.16 0 0 1-.072.134.15.15 0 0 1-.096.034c-.098 0-.17-.07-.215-.212-.113-.378-.22-.823-.314-1.337a10.43 10.43 0 0 1-.174-1.852c0-.2.012-.336.037-.404s.066-.096.13-.096c.106 0 .17.08.188.236a9.12 9.12 0 0 1 .03.619c.02.55.052.925.103 1.127.023-.057.06-.085.105-.085s.13.036.236.1c.633.433 1.353.847 2.156 1.24.6.3 1.153.52 1.627.66.145.032.216.087.216.164 0 .07-.036.13-.1.178-.048.032-.1.048-.15.048-.2 0-.72-.2-1.53-.598l-1.32-.708-1.016-.626-.146-.092z"/><use xlink:href="#D" y="-19.577"/><path d="M405.716 147.233c-.2-.19-.358-.36-.473-.506-.17-.22-.256-.37-.256-.444 0-.036.014-.068.04-.096s.053-.037.082-.037c.043 0 .113.04.212.12.155.123.287.21.396.256-.536-.533-.804-.897-.804-1.094a.16.16 0 0 1 .038-.105c.027-.032.062-.048.103-.048.064 0 .146.05.246.147.444.43.81.646 1.094.646.116 0 .2-.02.25-.062l.112-.09c.02-.02.047-.027.08-.027s.07.015.102.044c.037.035.055.073.055.117 0 .074-.047.145-.143.208-.114.077-.25.116-.404.116-.207 0-.416-.06-.63-.178-.074-.04-.175-.11-.3-.205.146.193.347.39.602.592a3.52 3.52 0 0 0 .582.369c.102.052.153.113.153.184 0 .078-.044.117-.13.117-.094 0-.286-.064-.578-.19-.166-.073-.342-.163-.525-.27.3.4.708.683 1.223.878.114.05.172.112.172.19 0 .037-.014.066-.04.1s-.06.037-.1.037c-.135 0-.377-.075-.73-.226a6 6 0 0 1-1.001-.533c-.208-.137-.312-.243-.312-.317 0-.068.037-.104.11-.104.032 0 .112.043.24.127.238.148.416.246.533.294z"/><use xlink:href="#E" y="-12.626"/><path d="M404.65 142.068c0-.187.113-.28.342-.28.303 0 .687.14 1.15.42.503.305.755.6.755.885a.3.3 0 0 1-.184.29.51.51 0 0 1-.223.047c-.3 0-.608-.1-.95-.3-.317-.187-.563-.406-.738-.66-.103-.148-.153-.282-.153-.403zm1.3.355c-.045.057-.08.086-.105.086-.018 0-.068-.037-.15-.1-.23-.205-.416-.3-.557-.3-.02 0-.037.006-.055.018a.09.09 0 0 0-.052.086c0 .072.07.18.212.32.182.183.37.322.564.418.22.1.404.167.55.167.038 0 .073-.01.103-.03.04-.03.062-.067.062-.113 0-.1-.082-.227-.246-.352a1.08 1.08 0 0 0-.212-.134l-.113-.048zm-.488-2.423c.154.316.232.566.232.75a.47.47 0 0 1-.226.42c-.106.075-.235.113-.386.113-.393 0-.77-.175-1.13-.523-.328-.316-.492-.643-.492-.978 0-.2.068-.345.202-.462a.66.66 0 0 1 .444-.15c.395 0 .84.142 1.336.424.27.153.584.393.943.72.406.364.6.604.6.717 0 .032-.014.063-.04.1s-.053.033-.082.033c-.055 0-.12-.046-.2-.14-.355-.424-.76-.76-1.213-1.012zm-.403-.202c-.328-.16-.6-.238-.813-.238-.154 0-.27.027-.35.083s-.116.14-.116.25c0 .232.136.462.406.688s.533.332.797.332c.12 0 .207-.028.267-.084s.1-.14.1-.252c0-.15-.045-.326-.137-.53-.072-.155-.12-.238-.144-.25zm1.534-.663c-.12-.383-.18-.735-.18-1.057 0-.125.026-.227.08-.305.045-.068.102-.102.167-.102.044 0 .082.016.116.047s.05.068.05.1a.28.28 0 0 1-.01.063 1.33 1.33 0 0 0-.048.32 2.38 2.38 0 0 0 .024.312c.006.043.047.202.123.476l.1.438c0 .063-.03.12-.093.167a.29.29 0 0 1-.178.065c-.068 0-.16-.06-.276-.178l-.6-.646-1.102-1.412c-.164-.187-.328-.28-.492-.28-.1 0-.162.03-.215.088a.3.3 0 0 0-.068.2c0 .205.115.446.346.725.104.127.156.207.156.238 0 .023-.014.05-.04.08a.13.13 0 0 1-.1.048c-.082 0-.198-.1-.35-.297-.242-.32-.362-.624-.362-.913 0-.166.054-.306.16-.417s.227-.16.372-.16c.255 0 .5.13.76.4a6.51 6.51 0 0 1 .492.615c.523.72.9 1.18 1.158 1.4zm-2.58-3.925c.335.387.622.634.86.74a1.58 1.58 0 0 1-.137-.577c0-.186.055-.33.164-.435.103-.098.236-.147.4-.147.375 0 .755.18 1.138.537s.57.7.57 1.043c0 .197-.092.35-.273.457a.82.82 0 0 1-.418.106.67.67 0 0 1-.386-.103c-.085-.057-.126-.13-.126-.22 0-.082.03-.123.092-.123.014 0 .04.007.078.02a.87.87 0 0 0 .268.034.47.47 0 0 0 .256-.068c.103-.062.154-.145.154-.25 0-.205-.13-.42-.387-.643-.283-.246-.564-.37-.844-.37-.117 0-.204.026-.262.08s-.088.132-.088.24a1.16 1.16 0 0 0 .082.383 2.6 2.6 0 0 0 .123.25c.017.027.024.052.024.074 0 .044-.027.087-.082.13-.062.045-.117.068-.167.068-.096 0-.277-.1-.544-.298-.17-.125-.345-.28-.52-.465-.068.05-.12.075-.157.075-.053 0-.1-.035-.113-.105-.01-.035-.03-.163-.06-.387-.035-.253-.052-.458-.052-.615a1.25 1.25 0 0 1 .03-.324c.023-.082.078-.123.164-.123.105 0 .158.052.158.156a2.54 2.54 0 0 1-.008.137l-.003.08.016.323a3.21 3.21 0 0 0 .046.316z"/><path d="M207.348 55.87c-19.974 0-36.166 16.187-36.166 36.155s16.2 36.154 36.166 36.154 36.166-16.187 36.166-36.154S227.32 55.87 207.348 55.87zm7.328 57.087h-1.238v9.324h-5.7v-9.324h-3.807v9.324h-5.7v-9.324h-11.04l.2-5.994h4.378c1.14 0 2.2-.666 2.2-2.76V78.896c0-1.523-.95-2.094-2.854-2.094h-4.283v-5.9h11.42V61.77h5.7v9.132h3.807V61.77h5.7V71c5.818.494 13.067 2.8 13.896 8.932.952 7.04-4.758 9.894-4.758 9.894s7.7 1.8 7.7 9.6-3.904 13.5-15.6 13.5zm-3.426-18.743h-7.328v12.18h6.282c6.1 0 9.042-2.475 9.042-7.04s-6.28-5.138-7.996-5.138zm5.234-11.894c0-4.662-5.617-5.138-8.47-5.138h-4.093v11.18h7.56c2-.27 5.004-1.836 5.004-6.042zm-9.136-40.72c-27.86 0-50.44 22.577-50.44 50.427s22.58 50.427 50.44 50.427 50.44-22.58 50.44-50.427-22.58-50.427-50.44-50.427zm0 96.666c-25.544 0-46.255-20.702-46.255-46.24s20.7-46.24 46.255-46.24 46.25 20.702 46.25 46.24-20.706 46.24-46.25 46.24z" opacity=".7" fill="#c5c5c5"/><path fill="#fff" d="M324.02 93.35h71.916v72.037H324.02z"/><g fill="#3f3e3e"><path d="M324.02 83.593h71.916v9.757H324.02z"/><path d="M359.98 93.35h-8.196s8.196 1.03 8.196 2.403c0-1.373 8.194-2.403 8.194-2.403h-8.194zm-35.96 71.944h71.916v9.757H324.02z"/><path d="M359.975 165.294h8.196s-8.196-1.03-8.196-2.403c0 1.373-8.194 2.403-8.194 2.403h8.194z"/></g><g fill="#fff"><use xlink:href="#F"/><path d="M346.662 173.36h-1.175v-5.857h1.175v5.857zm5.336-4.952h-1.673v4.952h-1.175v-4.952h-1.65v-.905h4.497v.905zm5.585 4.952h-1.175v-2.434h-2.386v2.434h-1.175v-5.857h1.175v2.52h2.386v-2.52h1.175v5.857zm1.284 0v-5.857h2.044c.716 0 1.306.23 1.77.686s.696 1.044.696 1.76v.97c0 .72-.232 1.306-.696 1.76s-1.054.682-1.77.682h-2.044zm1.175-4.952v4.05h.87c.386 0 .697-.145.933-.433s.354-.658.354-1.108v-.978c0-.448-.118-.815-.354-1.102s-.547-.43-.933-.43h-.87z"/><use xlink:href="#G"/><use xlink:href="#H"/><use xlink:href="#F" x="37.327"/><path d="M335.944 89.708v2.124h-1.175v-5.857h2.24c.673 0 1.202.172 1.59.515s.58.795.58 1.355-.193 1.01-.58 1.352-.916.51-1.59.51h-1.066zm0-.905h1.066c.327 0 .575-.09.744-.268a.95.95 0 0 0 .253-.682c0-.282-.084-.514-.25-.698s-.417-.275-.746-.275h-1.066v1.923z"/><use xlink:href="#G" x="-24.3" y="-81.52"/><path d="M346.937 91.832h-1.175v-5.857h1.175v5.857zm3.363-1.59l.072.322h.024l.068-.3 1.275-4.28h1.24l-2 5.857h-1.207l-1.987-5.857h1.24l1.267 4.27z"/><use xlink:href="#H" x="-16.527" y="-81.529"/><path d="M362.625 86.88h-1.673v4.952h-1.175V86.88h-1.65v-.905h4.497v.905zm4.195 2.377h-2.172v1.674h2.583v.9h-3.758v-5.857h3.75v.905h-2.574v1.472h2.172v.905zm5.305.13h-.43v2.446h-1.175v-5.857h1.175v2.394h.33l1.604-2.394h1.452l-2.027 2.724 2.185 3.134h-1.496l-1.617-2.446zm7.197-.13h-2.172v1.674h2.583v.9h-3.758v-5.857h3.75v.905h-2.574v1.472h2.172v.905zm3.508-.583h.024l1.28-2.7h1.287l-2.007 3.798v2.06h-1.175v-2.12l-1.976-3.737h1.287l1.28 2.7zM17.02 3.818h71.666V95.16H17.02z"/><path d="M17.02 13.567h71.666v71.786H17.02z"/></g><g fill="#3f3e3e"><path d="M17.02 3.818h71.666v9.724H17.02z"/><path d="M52.854 13.542h-8.168s8.168 1.026 8.168 2.395c0-1.368 8.166-2.395 8.166-2.395h-8.166zM17.02 85.438h71.666v9.723H17.02z"/><path d="M52.85 85.438h8.168s-8.168-1.027-8.168-2.395c0 1.368-8.166 2.395-8.166 2.395h8.166z"/></g><path d="M31.383 9.655v2.117h-1.17V5.935h2.233c.67 0 1.2.17 1.583.513s.577.792.577 1.35-.192 1.007-.577 1.347-.913.5-1.583.5h-1.062zm0-.902h1.062c.326 0 .573-.1.742-.267s.252-.404.252-.68-.083-.512-.25-.695-.415-.275-.744-.275h-1.062v1.917zm8.892-2.818v3.82c0 .658-.218 1.172-.654 1.543s-1 .557-1.696.557-1.254-.186-1.686-.557-.647-.886-.647-1.543v-3.82h1.175v3.82c0 .4.104.688.313.894s.5.3.846.3c.36 0 .647-.103.858-.3s.317-.503.317-.894v-3.82h1.175zm1.22 5.835V5.935h1.912c.687 0 1.223.134 1.608.403s.577.667.577 1.197a1.28 1.28 0 0 1-.208.718 1.27 1.27 0 0 1-.609.477c.363.066.637.224.822.473a1.42 1.42 0 0 1 .277.87c0 .56-.185.98-.553 1.27s-.892.43-1.568.43h-2.257zm1.17-3.392h.78c.313 0 .553-.064.722-.192s.253-.315.253-.56c0-.27-.085-.47-.255-.598s-.423-.192-.76-.192h-.74V8.38zm0 .8v1.684h1.086c.3 0 .547-.067.7-.203s.244-.334.244-.6c0-.283-.08-.5-.24-.653s-.402-.23-.726-.23h-1.074zm5.437 1.696h2.613v.898H46.93V5.935h1.17v4.94zm4.848.896h-1.17V5.935h1.17v5.837zm5.74-1.93l.008.024c.01.623-.18 1.1-.57 1.463s-.93.53-1.616.53c-.7 0-1.265-.225-1.695-.675s-.646-1.032-.646-1.746v-1.16c0-.7.2-1.293.63-1.746s.97-.68 1.65-.68c.7 0 1.267.174 1.668.52s.596.836.585 1.467l-.008.024h-1.14c0-.374-.1-.653-.27-.836s-.46-.274-.836-.274a.94.94 0 0 0-.82.423c-.197.283-.294.646-.294 1.092v1.167c0 .45.104.815.3 1.098s.495.425.864.425c.35 0 .612-.1.784-.274s.258-.464.258-.844h1.135zm4.9-.506h-.43v2.438H62V5.935h1.17V8.32h.33l1.6-2.385h1.447l-2.02 2.714 2.177 3.123h-1.492l-1.6-2.437zm7.174-.128H68.6v1.667h2.573v.898H67.43V5.935h3.736v.902H68.6v1.467h2.165v.902zm3.496-.58h.024l1.275-2.7h1.283l-2 3.784v2.053h-1.17V9.66l-1.968-3.724h1.283l1.275 2.7zm-50 84.19v-4.8h1.674c.587 0 1.07.188 1.45.562s.57.855.57 1.442v.794c0 .6-.2 1.07-.57 1.442s-.864.56-1.45.56H24.26zm.962-4.058v3.32h.712a.94.94 0 0 0 .765-.354c.193-.236.3-.54.3-.908v-.8c0-.367-.097-.668-.3-.903a.94.94 0 0 0-.765-.353h-.712zm6.415 1.95h-1.78v1.372h2.117v.738h-3.08v-4.8h3.072v.742h-2.1v1.207h1.78v.742zm2.143.37v1.74h-.962v-4.8h1.836c.552 0 .986.14 1.302.422s.475.652.475 1.1-.158.83-.475 1.108-.75.418-1.302.418h-.874zm0-.742h.874c.268 0 .472-.073.6-.22a.83.83 0 0 0 .208-.56.83.83 0 0 0-.206-.572c-.136-.152-.34-.226-.612-.226h-.874v1.576zm7.392.514c0 .6-.186 1.08-.557 1.462s-.855.575-1.45.575-1.075-.192-1.444-.577-.554-.87-.554-1.46v-.863c0-.587.184-1.073.552-1.46s.848-.58 1.44-.58 1.08.193 1.454.58.56.872.56 1.46v.863zm-.96-.87c0-.374-.093-.68-.28-.92s-.445-.36-.774-.36-.58.12-.76.36-.272.546-.272.92v.87c0 .38.1.7.273.93s.438.36.765.36.587-.12.77-.36.277-.55.277-.93v-.87zm4.393 1.586a.56.56 0 0 0-.193-.445c-.128-.112-.354-.218-.677-.316-.554-.167-.974-.364-1.26-.6a1.13 1.13 0 0 1-.43-.926c0-.39.162-.715.485-.964s.735-.374 1.236-.374c.532 0 .96.134 1.284.402a1.26 1.26 0 0 1 .47 1.055l-.006.02h-.933c0-.24-.073-.424-.218-.552s-.348-.193-.6-.193c-.237 0-.42.057-.55.17s-.194.26-.194.438c0 .163.07.296.2.4s.383.215.73.332c.527.15.93.344 1.207.585s.415.558.415.95c0 .4-.16.735-.48.973s-.745.356-1.272.356c-.517 0-.96-.13-1.33-.386s-.55-.64-.54-1.15l.006-.02h.933c0 .284.083.492.25.626s.394.2.68.2c.257 0 .453-.054.588-.162s.203-.25.203-.432zm2.868 1.252h-.962v-4.8h.962v4.8zm4.372-4.058h-1.37v4.058h-.963v-4.058H48.16v-.742h3.686v.742zm2.995 4.47h-.937l1.76-5.212h.936l-1.76 5.212zm5.925-1.715l.06.264h.02l.056-.254 1.045-3.507h1.016l-1.632 4.8h-1l-1.628-4.8h1.016l1.038 3.498zm5.572-.807h-1.78v1.372h2.117v.738h-3.08v-4.8h3.072v.742h-2.1v1.207h1.78v.742zm2.143.19v1.918h-.962v-4.8h1.66c.547 0 .976.125 1.284.374s.463.597.463 1.043a1.05 1.05 0 0 1-.196.638c-.13.18-.32.324-.572.434.283.083.487.223.6.42s.186.437.186.725V92a1.75 1.75 0 0 0 .055.42.58.58 0 0 0 .186.325v.07h-.992c-.088-.07-.145-.187-.17-.35s-.038-.32-.038-.47v-.34c0-.24-.065-.425-.196-.56s-.316-.2-.556-.2h-.765zm0-.742h.683c.27 0 .47-.057.603-.17s.198-.284.198-.508-.066-.395-.2-.524-.328-.194-.585-.194h-.7v1.398zm4.538 2.66h-.962v-4.8h.962v4.8zm3.927-1.994h-1.843v1.995h-.962v-4.8h3.142v.742h-2.18v1.322h1.843v.742zm2.812-.593h.02l1.048-2.212h1.055l-1.645 3.112v1.688h-.963v-1.737l-1.618-3.062h1.055l1.048 2.212zm28.178-76.907h250v14.4h-250z" fill="#fff"/><g fill="#3f3e3e"><path d="M109.87 35.115l-.396 2.66h-.527l.958-6.398h2.206c.642 0 1.128.173 1.46.52s.456.795.374 1.35c-.1.6-.342 1.048-.753 1.377s-.958.495-1.637.495h-1.683zm.07-.448h1.68c.504 0 .913-.136 1.23-.4s.503-.608.564-1.006c.064-.425-.014-.77-.235-1.033s-.598-.396-1.13-.396h-1.68l-.426 2.843zm7.815 3.106l.07-.75c-.193.272-.43.48-.708.626a2.02 2.02 0 0 1-.945.217c-.483 0-.846-.17-1.088-.514s-.3-.87-.204-1.578l.413-2.755h.527l-.413 2.764c-.094.604-.062 1.025.097 1.266s.423.36.795.36c.387 0 .714-.092.982-.277a1.82 1.82 0 0 0 .622-.75l.5-3.362h.527l-.712 4.755h-.466zm6.25-2.245c-.1.738-.357 1.313-.736 1.723s-.856.615-1.43.615c-.334 0-.618-.07-.853-.213a1.37 1.37 0 0 1-.536-.608l-.202.73h-.413l1.028-6.855h.527l-.426 2.83a2.1 2.1 0 0 1 .697-.604 1.91 1.91 0 0 1 .907-.213c.548 0 .954.23 1.22.7s.342 1.065.23 1.815l-.013.092zm-.52-.092c.094-.627.052-1.125-.125-1.494s-.497-.554-.96-.554c-.35 0-.65.1-.905.272a2.11 2.11 0 0 0-.62.694l-.325 2.17a1.22 1.22 0 0 0 .424.646c.203.158.48.237.828.237.44 0 .806-.172 1.1-.516s.483-.8.57-1.365l.013-.092zm2.173 2.337h-.523l1.028-6.855h.523l-1.028 6.855zm2.27 0h-.523l.712-4.755h.523l-.712 4.755zm.918-6.117h-.523l.1-.738h.523l-.1.738zm2.555 5.766c.325 0 .635-.1.93-.3a1.19 1.19 0 0 0 .525-.829h.466l.01.026a1.58 1.58 0 0 1-.683 1.119 2.2 2.2 0 0 1-1.312.428c-.6 0-1.063-.225-1.362-.674s-.396-1.018-.3-1.703l.026-.185c.105-.715.365-1.3.78-1.723s.94-.65 1.58-.65c.492 0 .9.155 1.2.466s.4.715.325 1.213l-.01.022h-.475c.06-.396-.02-.703-.23-.923s-.5-.33-.868-.33c-.478 0-.87.186-1.18.558s-.504.828-.586 1.367l-.026.185c-.088.577-.038 1.044.15 1.4s.535.534 1.042.534zM140.612 36h-2.804l-.914 1.784h-.545l3.3-6.398h.497l1.375 6.398h-.545L140.612 36zm-2.562-.47h2.465l-.703-3.388-.026-.004-1.736 3.393z"/><use xlink:href="#I"/><use xlink:href="#I" x="5.234"/><path d="M155.908 33.47l-.37-.026a1.29 1.29 0 0 0-.848.3 2.05 2.05 0 0 0-.584.787l-.488 3.252h-.527l.712-4.755h.46l-.053.8-.004.026a2.03 2.03 0 0 1 .65-.668 1.61 1.61 0 0 1 .866-.237 1.08 1.08 0 0 1 .182.016.83.83 0 0 1 .143.033l-.14.492zm2.19 4.396c-.592 0-1.053-.22-1.384-.66s-.445-.996-.343-1.67l.04-.242c.103-.712.378-1.284.828-1.716s.966-.648 1.55-.648c.557 0 .97.188 1.237.563s.357.872.266 1.5l-.062.4h-3.3l-.022.145c-.085.563-.017 1.017.205 1.365s.575.52 1.06.52a2.36 2.36 0 0 0 .815-.145 2.1 2.1 0 0 0 .67-.382l.17.36c-.193.176-.435.322-.723.438s-.622.173-1 .173zm.624-4.487c-.387 0-.735.146-1.046.44s-.523.66-.637 1.1l.01.026h2.725l.013-.1c.064-.437.007-.788-.17-1.055s-.476-.4-.892-.4z"/><use xlink:href="#J"/><use xlink:href="#J" x="4.798"/></g><path d="M454.435 12.813h72v72h-72zm0 80.265h72v72h-72z" fill="#fff"/><path fill="#3f3e3e" d="M454.477 84.813h71.916v8.13h-71.916z"/><path d="M472.48 89.285v1.547h-.855v-4.266h1.632c.5 0 .876.125 1.157.375s.422.58.422.987-.14.736-.422.984-.667.372-1.157.372h-.776zm0-.66h.776c.238 0 .42-.065.542-.195s.185-.295.185-.497a.73.73 0 0 0-.183-.508c-.123-.134-.304-.2-.544-.2h-.776v1.4zm3.972.5v1.705h-.855v-4.266h1.477c.486 0 .866.1 1.14.333s.412.53.412.927a.94.94 0 0 1-.174.567c-.117.16-.286.288-.5.385.252.074.433.198.544.372s.165.4.165.645v.313a1.6 1.6 0 0 0 .048.374.52.52 0 0 0 .166.289v.062h-.882c-.078-.062-.13-.166-.15-.3s-.033-.284-.033-.42V89.8c0-.213-.06-.378-.174-.497s-.28-.177-.494-.177h-.68zm0-.66h.606c.24 0 .42-.05.536-.152s.176-.252.176-.45a.62.62 0 0 0-.178-.466c-.118-.115-.3-.173-.52-.173h-.62v1.242zm4.03 2.366h-.855v-4.266h.855v4.266zm2.45-1.158l.053.234h.018l.05-.226.93-3.117h.902l-1.45 4.266h-.88l-1.447-4.266h.902l.923 3.108zm4.516.238h-1.383l-.287.92h-.894l1.438-4.266h.876l1.433 4.266h-.894l-.3-.92zm-1.172-.67h.964l-.472-1.503h-.018l-.475 1.503zm5.63-2.017h-1.22v3.606h-.855v-3.606h-1.2v-.66h3.275v.66zm3.057 1.732h-1.582v1.22h1.88v.656h-2.736v-4.266h2.73v.66h-1.875V88.3h1.582v.66zm3.862.093h-.313v1.78h-.855v-4.266h.855v1.743h.24l1.17-1.743h1.058l-1.477 1.983 1.6 2.282h-1.1l-1.178-1.78zm5.24-.093h-1.582v1.22h1.88v.656h-2.736v-4.266h2.73v.66h-1.875V88.3h1.582v.66zm2.556-.425h.018l.932-1.966h.938l-1.462 2.766v1.5h-.855v-1.544l-1.438-2.722h.938l.932 1.966zm-79.19-75.212h14.4v72h-14.4z" fill="#fff"/><path d="M50.69 157.014c.782 0 1.458.14 2.028.416s1.042.65 1.417 1.124.65 1.026.83 1.662.27 1.32.27 2.052c0 1.124-.208 2.187-.623 3.188s-.98 1.873-1.698 2.614-1.563 1.328-2.54 1.76a7.78 7.78 0 0 1-3.176.647c-.146 0-.403-.004-.77-.012s-.786-.045-1.258-.1-.974-.163-1.502-.293a7.61 7.61 0 0 1-1.502-.538l4.227-17.762 3.787-.586-1.515 6.304c.326-.146.65-.26.978-.342a4.34 4.34 0 0 1 1.051-.122zm-3.176 10.457a3.3 3.3 0 0 0 1.612-.416 4.26 4.26 0 0 0 1.307-1.111 5.57 5.57 0 0 0 .867-1.576 5.35 5.35 0 0 0 .318-1.833c0-.782-.13-1.393-.39-1.832s-.74-.66-1.44-.66c-.228 0-.525.04-.892.122s-.696.252-1 .513l-1.612 6.694.256.05c.073.017.15.03.232.037s.18.012.293.012h.44z"/><use xlink:href="#K"/><path d="M67.842 154.083l3.787-.586-.93 3.787h4.056l-.733 2.98h-4.03l-1.075 4.496c-.098.375-.16.725-.184 1.05s.016.607.122.843a1.13 1.13 0 0 0 .55.55c.26.13.62.195 1.075.195a5.79 5.79 0 0 0 1.136-.11 8.31 8.31 0 0 0 1.111-.306l.27 2.785c-.5.18-1.018.334-1.588.464s-1.246.195-2.028.195c-1.124 0-1.995-.167-2.614-.5s-1.06-.8-1.32-1.368-.375-1.242-.342-2a12.79 12.79 0 0 1 .342-2.37l2.395-10.115zm7.648 10.92a9.02 9.02 0 0 1 .538-3.127 7.69 7.69 0 0 1 1.539-2.565c.667-.733 1.478-1.3 2.43-1.735s2.016-.635 3.188-.635c.733 0 1.4.07 1.967.208s1.104.322 1.576.55l-1.246 2.834-1.014-.354c-.35-.106-.778-.16-1.283-.16-1.22 0-2.183.4-2.883 1.234s-1.05 1.942-1.05 3.36c0 .83.18 1.502.538 2.016s1.018.77 1.98.77c.472 0 .93-.05 1.368-.146s.83-.22 1.173-.367l.27 2.907c-.457.18-.958.338-1.503.477s-1.2.208-2 .208c-1 0-1.865-.147-2.565-.44s-1.28-.688-1.734-1.185-.786-1.08-1-1.747-.305-1.368-.305-2.1zm16.8 5.474c-.863 0-1.612-.13-2.248-.4a4.15 4.15 0 0 1-1.576-1.1c-.416-.473-.73-1.03-.94-1.673s-.317-1.356-.317-2.138a9.49 9.49 0 0 1 .476-2.932 8.37 8.37 0 0 1 1.405-2.64c.62-.783 1.376-1.42 2.272-1.918s1.922-.745 3.08-.745c.847 0 1.592.13 2.235.4s1.173.627 1.588 1.1.73 1.03.94 1.674.317 1.356.317 2.138c0 .978-.155 1.955-.464 2.932a8.5 8.5 0 0 1-1.368 2.64c-.602.783-1.356 1.42-2.26 1.918s-1.95.746-3.14.746zm1.808-10.457c-.538 0-1 .155-1.417.464a3.82 3.82 0 0 0-1.026 1.173c-.276.473-.484 1-.623 1.55s-.208 1.096-.208 1.6c0 .83.13 1.47.4 1.918s.733.672 1.417.672c.538 0 1-.155 1.417-.464a3.82 3.82 0 0 0 1.026-1.173 5.86 5.86 0 0 0 .623-1.55c.14-.56.208-1.095.208-1.6 0-.83-.13-1.47-.4-1.918s-.733-.672-1.417-.672z"/><use xlink:href="#K" x="44.295"/><path d="M111.6 157.87l.916-.28a12.3 12.3 0 0 1 1.124-.293 14.07 14.07 0 0 1 1.393-.22c.513-.057 1.095-.085 1.747-.085 1.922 0 3.24.554 3.958 1.662s.84 2.623.367 4.544l-1.662 6.94h-3.64l1.613-6.792.232-1.234c.057-.4.053-.75-.012-1.05a1.24 1.24 0 0 0-.452-.733c-.236-.187-.6-.28-1.087-.28-.473 0-.953.05-1.44.146l-2.37 9.944h-3.64l2.956-12.265z"/><use xlink:href="#L"/><use xlink:href="#M"/><use xlink:href="#L" x="12.16"/><use xlink:href="#N"/><path d="M153.247 166.154l-.395-.095c-.13-.03-.322-.045-.575-.045a2.14 2.14 0 0 0-.3.025l-.28.055-.97 4.04h-1.5l1.2-4.98.965-.265c.356-.083.758-.125 1.205-.125a3.87 3.87 0 0 1 .555.045 2.15 2.15 0 0 1 .535.145l-.44 1.2zm7.26.9l-.425.835-.48.83-.475.77-.4.645h-1.16l-.165-1-.165-1.265-.145-1.45-.095-1.545h1.46l.005.78.02.87.045.92.08.93.495-.875.47-.9.42-.895.345-.82h1.24l.025 1.6.125 1.9.5-.925.425-.935.35-.88.275-.76h1.58L164.37 166l-.635 1.315-.8 1.4a13.88 13.88 0 0 1-1 1.4h-1.16l-.18-1.57-.08-1.5z"/><use xlink:href="#M" x="33.279"/><use xlink:href="#O"/><use xlink:href="#O" x="3.3"/><use xlink:href="#N" x="33.949"/><path d="M184.605 163.564l1.55-.24-.38 1.55h1.66l-.3 1.22h-1.65l-.44 1.84c-.04.154-.065.297-.075.43s.006.25.05.345a.46.46 0 0 0 .225.225c.106.054.253.08.44.08a2.34 2.34 0 0 0 .465-.045c.15-.03.302-.07.455-.125l.1 1.14a8 8 0 0 1-.65.2c-.233.063-.5.08-.83.08-.46 0-.816-.068-1.07-.205s-.434-.323-.54-.56-.153-.508-.14-.815.06-.63.14-.97l.98-4.14zm-155.988-2.852l-1.706-.314-.522 2.835 1.462.27c1.417.26 2.2-.188 2.406-1.25s-1.242-1.464-1.64-1.54zm-.023-4.102l-.952-.176-.48 2.602 1.76.325c.475.022 1.244-.213 1.424-1.192.2-1.085-1.087-1.437-1.75-1.56zm.978-6.98a10.63 10.63 0 0 0-12.375 8.524 10.63 10.63 0 0 0 8.524 12.375 10.63 10.63 0 0 0 12.375-8.524 10.63 10.63 0 0 0-8.524-12.375zm3.25 13.115c-.334 1.815-1.488 2.977-4.2 2.476l-.288-.054-.4 2.17-1.33-.245.4-2.17-.886-.163-.4 2.17-1.33-.245.4-2.17-2.57-.474.3-1.387 1.02.188c.266.05.538-.06.628-.55l1.085-5.9c.065-.355-.13-.528-.574-.6l-.997-.184.253-1.374 2.657.5.4-2.126 1.33.245-.392 2.126.886.163.392-2.125 1.33.245-.396 2.15c1.333.364 2.92 1.212 2.85 2.674-.08 1.68-1.53 2.1-1.53 2.1s1.716.75 1.38 2.567z"/></svg>